<svg width="91" height="126" viewBox="0 0 91 126" fill="none" xmlns="http://www.w3.org/2000/svg">
<g filter="url(#filter0_d_903_157)">
<path d="M44.2861 4C67.0092 4 85.5718 22.7631 85.5723 45.9082C85.5722 53.0018 83.2695 61.1468 79.6035 69.5537C75.9533 77.9243 71.0434 86.3484 66.04 93.9424C57.2839 107.232 48.361 117.801 45.7305 120.842L45.0068 121.67C44.6416 122.082 44.0368 122.108 43.6416 121.747L43.5654 121.67C42.7639 120.765 32.539 109.13 22.5322 93.9424C17.5289 86.3484 12.619 77.9243 8.96875 69.5537C5.30275 61.1468 3.00006 53.0018 3 45.9082C3 22.7632 21.5628 4.00002 44.2861 4Z" fill="url(#paint0_linear_903_157)" stroke="black" stroke-width="6"/>
<circle cx="44.2863" cy="45.2862" r="26.5717" fill="url(#paint1_linear_903_157)"/>
</g>
<defs>
<filter id="filter0_d_903_157" x="0" y="0" width="90.5723" height="126" filterUnits="userSpaceOnUse" color-interpolation-filters="sRGB">
<feFlood flood-opacity="0" result="BackgroundImageFix"/>
<feColorMatrix in="SourceAlpha" type="matrix" values="0 0 0 0 0 0 0 0 0 0 0 0 0 0 0 0 0 0 127 0" result="hardAlpha"/>
<feOffset dx="1"/>
<feGaussianBlur stdDeviation="0.5"/>
<feColorMatrix type="matrix" values="0 0 0 0 0 0 0 0 0 0 0 0 0 0 0 0 0 0 0.6 0"/>
<feBlend mode="normal" in2="BackgroundImageFix" result="effect1_dropShadow_903_157"/>
<feBlend mode="normal" in="SourceGraphic" in2="effect1_dropShadow_903_157" result="shape"/>
</filter>
<linearGradient id="paint0_linear_903_157" x1="-3.36022e-07" y1="45.2862" x2="66.4293" y2="47.5005" gradientUnits="userSpaceOnUse">
<stop stop-color="#ABABAB"/>
<stop offset="1" stop-color="#F5F7F6"/>
</linearGradient>
<linearGradient id="paint1_linear_903_157" x1="17.7159" y1="42.756" x2="70.8593" y2="42.756" gradientUnits="userSpaceOnUse">
<stop stop-color="#C8141C"/>
<stop offset="1" stop-color="#FF5B62"/>
</linearGradient>
</defs>
</svg>
